<svg width="265" height="100" viewBox="0 0 265 100" fill="none" xmlns="http://www.w3.org/2000/svg">
<path d="M14.6447 14.6447C5.26784 24.0215 0 36.7392 0 50V92C0 96.4183 3.58172 100 8 100H27C31.4183 100 35 96.4183 35 92V50C35 46.0218 36.5804 42.2064 39.3934 39.3934C42.2064 36.5804 46.0218 35 50 35C53.9782 35 57.7936 36.5803 60.6066 39.3934C63.4196 42.2064 65 46.0217 65 50V92C65 96.4183 68.5817 100 73 100H92C96.4183 100 100 96.4183 100 92V50C100 46.0218 101.58 42.2064 104.393 39.3934C107.206 36.5804 111.022 35 115 35C118.978 35 122.794 36.5803 125.607 39.3934C128.42 42.2064 130 46.0217 130 50V92C130 96.4183 133.582 100 138 100H157C161.418 100 165 96.4183 165 92V50C165 36.7392 159.732 24.0215 150.355 14.6447C140.979 5.26784 128.261 0 115 0C103.041 0 91.5236 4.28438 82.5 12.0031C73.4764 4.28438 61.9591 0 50 0C36.7392 0 24.0215 5.26784 14.6447 14.6447Z" fill="black"/>
<path d="M185 8C185 3.58172 188.582 0 193 0H212C216.418 0 220 3.58172 220 8V50C220 51.9698 220.388 53.9204 221.142 55.7402C221.896 57.5601 223.001 59.2137 224.393 60.6066C225.786 61.9995 227.44 63.1044 229.26 63.8582C231.08 64.612 233.03 65 235 65H257C261.418 65 265 68.5817 265 73V92C265 96.4183 261.418 100 257 100H235C228.434 100 221.932 98.7067 215.866 96.194C209.8 93.6812 204.288 89.9983 199.645 85.3553C195.002 80.7124 191.319 75.2004 188.806 69.1342C186.293 63.0679 185 56.5661 185 50V8Z" fill="black"/>
</svg>
